<?xml version="1.0" encoding="utf-8"?>
<!-- Generator: Adobe Illustrator 24.2.2, SVG Export Plug-In . SVG Version: 6.00 Build 0)  -->
<svg version="1.1" id="a3fb4343-95d2-4a83-b68f-ed4eefcf6705"
	 xmlns="http://www.w3.org/2000/svg" xmlns:xlink="http://www.w3.org/1999/xlink" x="0px" y="0px" viewBox="0 0 2000 2000"
	 style="enable-background:new 0 0 2000 2000;" xml:space="preserve">
<style type="text/css">
	.st0{fill:#CCCCCC;}
	.st1{fill:#FFB8B8;}
	.st2{fill:#3252DF;}
	.st3{fill:#2F2E41;}
	.st4{fill:#A0616A;}
	.st5{fill:#E6E6E6;}
	.st6{fill:#FFFFFF;}
	.st7{fill:#3F3D56;}
</style>
<g>
	<rect x="1696.8" y="780.4" class="st0" width="65.6" height="30"/>
	
		<rect x="1629.6" y="638.6" transform="matrix(0.4437 -0.8962 0.8962 0.4437 313.2255 1847.3612)" class="st0" width="30" height="65.7"/>
	
		<rect x="1571.1" y="756.7" transform="matrix(0.4437 -0.8962 0.8962 0.4437 174.8004 1860.6373)" class="st0" width="30" height="65.7"/>
	<path class="st1" d="M897.8,976.3c2.5,1.5,5.6,3.6,7.6,5.6l271.8-84.5l15.3-67.7l104.8,9.7l-15.8,122.1
		c-2.5,20.4-18.3,36.1-38.2,39.7l-320.1,50.9c-12.7,30.5-47.8,45.3-78.9,32.6c-30.5-12.7-45.3-47.8-32.6-78.9
		c12.7-30.5,47.8-45.3,78.9-32.6C893.2,974.3,895.8,975.3,897.8,976.3z"/>
	<path class="st2" d="M1346.2,880.1l-2-30.5l0,0l-0.5-8.7l-5.1-90.6c3.6-39.2-26-73.8-65.1-77.4c-5.6-0.5-10.7-0.5-16.3,0.5
		c-33.1,4.6-58.5,31.6-61.6,64.6l-11.2,45.8l-19.3,80.4c-3.1,11.7,2.5,23.4,13.2,29c3.1,1.5,6.1,2.5,9.7,3.1l32.1,3.1l31,2.5
		l35.6,3.1h2.5l6.6,0.5l21.9,2l0,0c7.6,0.5,14.8-2,20.4-7.1c2-2,3.6-4.1,5.1-6.6C1345.7,889.3,1346.7,884.7,1346.2,880.1
		L1346.2,880.1z"/>
	<path class="st3" d="M1644.4,506.6c0,104.3-96.7,88.5-215.8,88.5c-119.1,0-215.8,15.8-215.8-88.5S1260.2,217,1428.6,217
		C1603.2,217,1644.4,402.3,1644.4,506.6z"/>
	<ellipse class="st1" cx="1428.1" cy="450" rx="145" ry="145"/>
	<path class="st3" d="M1632.2,656.2c-2.5-2.5-5.6-5.1-8.7-7.6c-19.8-14.8-44.8-21.4-69.2-18.3l-267.7,34.1
		c-50.9,6.1-87.5,51.9-83,103.3c1,8.7,1.5,17.8,2.5,27c1,11.7,2.5,23.9,4.1,36.6c2.5,21.4,5.6,44.3,9.7,67.2
		c3.6,19.8,7.1,40.2,11.7,60.1c1,5.6,2.5,11.7,4.1,17.3l0,0c0,0.5,0.5,1.5,0.5,2l0,0c2,8.1,4.1,15.8,6.1,23.4c1,3.1,1.5,5.6,2.5,8.7
		c2,7.6,4.6,15.3,6.6,22.4c17.3,55,40.7,101.3,70.7,126.2c0.5,0.5,1,0.5,1,1l1,1l1.5-0.5l7.6-2l6.6-2l83.5-24.9l20.9-6.1l66.7-20.4
		l0,0l61.1-18.3l7.6-2l52.4-15.8l1.5-19.8l2-26l1.5-15.8l10.7-123.2l6.1-71.8l6.6-78.4C1663.7,704.6,1653,676.1,1632.2,656.2z"/>
	<path class="st3" d="M1781.8,1253.2c-0.5-2-1.5-4.1-2-6.1c-31.6-91.6-77.9-160.8-146.1-198.5l0,0l-1-0.5l-59.5,20.4l-7.1,2.5
		l-7.6,2.5l0,0l-55.5,19.3l0,0l-43.8,15.3l0,0l-40.2,13.7l0,0l-9.2,3.1l-70.7,24.4l-8.1,3.1l-7.1,2.5l-1,0.5v3.6l-5.1,88.5l-0.5,6.1
		l-6.1,110.4l-209.7,295.2h143c47.8,0,95.7-3.6,143-10.7l133.8-144.5c3.6-3.6,9.2-3.6,12.7,0c1.5,1,2,3.1,2.5,4.6l19.8,97.7
		c97.2-34.1,187.8-84.5,268.7-148.1C1815.9,1381.9,1802.2,1313.2,1781.8,1253.2z"/>
	<path class="st3" d="M1260.2,435.9L1260.2,435.9h57.5l25.4-70.7l5.1,70.7h27.5l14.8-41.2l3.1,41.2h204.1l0,0
		c0-85-68.7-153.7-153.7-153.7l0,0h-29.5C1328.9,282.2,1260.2,350.9,1260.2,435.9L1260.2,435.9z"/>
	<path class="st4" d="M906.5,1205.3c-35.6,14.8-76.3-1.5-91.1-37.2c-1.5-3.6-3.1-7.6-3.6-11.7l-245.8-28l82.4-98.7l220.9,41.7
		c38.2-6.1,73.8,20.4,79.9,58.5C954.3,1161.6,936.5,1193.1,906.5,1205.3L906.5,1205.3z"/>
	<path class="st0" d="M774.2,1022.6l-103.8-18.3l-7.6-1.5c-23.4-4.1-39.2-27-35.1-50.4c0.5-1.5,0.5-3.1,1-5.1l50.9-169.5l1.5-5.1
		c13.2-44.3-6.1-92.1-46.3-114.5c-47.8-26.5-107.4-9.2-133.8,38.2c-4.1,7.6-7.6,15.8-9.7,24.4l-65.1,265.6l-2.5,9.7
		c-17.3,71.2,26,143,97.2,160.3c6.1,1.5,12.7,2.5,19.3,3.1h0.5l39.2,3.6l50.4,4.6l63.6,5.6l59,5.1c16.3,1.5,30.5-9.7,33.6-25.4
		c0-0.5,0-1,0-1.5l12.7-94.1v-1C801.6,1041,790.4,1025.7,774.2,1022.6z"/>
	<path class="st3" d="M614.4,311.2c-41.2,81.4-74.3,165.4-165.4,165.4c-91.6,0-165.4-74.3-165.4-165.4S357.9,146.8,449,145.8
		C541.6,144.3,691.2,159.5,614.4,311.2z"/>
	<path class="st3" d="M718.2,1377.4l-3.6-37.7h-3.1l-493.6,23.9l1.5,38.2l2,65.1c76.3,58,161.3,104.3,251.4,136.9l3.1-24.9
		c0.5-5.1,5.1-8.1,10.2-7.6c3.6,0.5,6.6,3.1,7.1,6.6l9.7,36.1c78.9,25.4,160.3,40.2,243.3,43.8L718.2,1377.4z"/>
	<circle class="st1" cx="456.6" cy="334.6" r="145"/>
	<path class="st0" d="M746.7,1342.2l-29-89.6l-0.5-1.5l-1.5-4.6l-8.1-25.4c-2.5-8.1-5.1-16.8-7.6-24.9c-2-7.6-4.1-15.3-6.1-22.4
		c-2.5-10.7-5.1-20.9-7.1-31.6c-7.6-35.6-12.2-71.8-14.8-107.9c-0.5-10.2-1-20.4-1.5-30c-2-62.1,3.6-123.7,16.8-184.2
		c22.9-107.4-27-217.3-123.2-270.2c-30.5-16.8-64.6-27-99.7-30c-2.5,0-4.6-0.5-7.1-0.5c-74.8-4.6-147.6,24.9-198.5,80.4
		c-13.2,14.8-24.9,30.5-34.6,47.8c-26.5,47.8-36.6,103.3-28.5,157.8l34.1,230.5l-7.6,97.2l-9.2,114.5l-0.5,6.1l-9.7,122.1
		c-1,11.7,5.6,22.4,16.8,27c3.1,1,6.6,2,9.7,2c0.5,0,1,0,1.5,0l488-26.5h4.6c14.8-0.5,26-13.2,24.9-28
		C747.7,1346.8,747.2,1344.8,746.7,1342.2z"/>
	<path class="st3" d="M610.8,252.7c-33.1,22.9-72.8,35.1-113,35.1c14.2,10.2,30.5,16.8,47.8,19.8c-53.4,11.7-108.9,11.7-162.8,1
		c-11.7-2-23.4-6.1-34.1-11.7c-10.2-6.1-18.8-16.3-20.9-28c-3.6-20.4,12.2-38.7,29-51.4c51.4-38.2,117-51.4,178.6-35.6
		c19.8,5.1,40.2,13.7,52.9,30c12.7,16.3,16.8,40.7,4.6,57.5L610.8,252.7z"/>
	<path class="st1" d="M618.4,1175.3c-35.1,15.8-76.3,0-92.1-35.1c-1.5-3.6-3.1-7.6-4.1-11.7l-246.3-22.4l80.4-100.3l221.4,36.6
		c38.2-6.6,74.3,18.3,81.4,56.5C664.7,1130.5,648,1162.1,618.4,1175.3L618.4,1175.3z"/>
	<path class="st0" d="M482.1,995.7l-55.5-8.7l-56-8.7c-23.9-3.6-39.7-26-36.1-49.4c0.5-1.5,0.5-3.1,1-5.1l48.9-175.6
		c12.2-44.8-8.1-91.6-48.9-113.5c-27-14.2-59.5-15.3-87.5-2.5s-48.3,38.2-55,68.2l-61.6,276.8c-15.8,71.8,29.5,142.5,100.8,158.3
		c6.6,1.5,13.2,2.5,19.8,3.1l212.7,14.2c16.3,1,30.5-10.2,33.1-26.5c0-0.5,0-1,0-1.5l10.7-94.1v-1C510,1013,498.3,998.2,482.1,995.7
		z"/>
	<path class="st5" d="M1424,849.6l-12.7,7.1l-157.3,85.5l-12.7,7.1c-12.7,7.1-17.8,23.4-10.7,36.1l117,214.2
		c7.1,12.7,23.4,17.8,36.1,10.7l0,0l182.2-99.7l0,0c12.7-7.1,17.8-23.4,10.7-36.1l-117-214.2C1453,847.1,1436.8,842.5,1424,849.6z"
		/>
	<path class="st6" d="M1427.6,856.2l-15.3,8.1l-152.2,83l-15.3,8.1c-9.2,5.1-12.7,16.3-7.6,25.4l117,214.2
		c5.1,9.2,16.3,12.7,25.4,7.6l0,0l182.2-99.7l0,0c9.2-5.1,12.7-16.3,7.6-25.4l-117-214.2C1448.5,854.7,1436.8,851.1,1427.6,856.2z"
		/>
	<path class="st5" d="M1431.7,916.8c-1-2-4.1-3.1-6.1-1.5l-6.1,3.6l-62.1,33.6c-2,1-3.1,4.1-1.5,6.1c1,2,4.1,3.1,6.1,1.5l68.2-37.2
		C1432.2,921.4,1433.2,918.8,1431.7,916.8z"/>
	<path class="st5" d="M1455.1,920.9c-1-2-3.6-3.1-6.1-1.5l0,0l-84,45.8c-2,1-3.1,4.1-1.5,6.1c1,2,4.1,3.1,6.1,1.5l0,0l4.1-2
		l24.4-13.2l0,0l55.5-30.5C1455.6,926,1456.1,923.4,1455.1,920.9C1455.1,921.4,1455.1,920.9,1455.1,920.9z"/>
	<path class="st5" d="M1363.5,994.1l-26.5-48.9c-0.5-1-2-1.5-3.1-1l-12.7,7.1l-6.6,3.6l-36.1,19.8l-7.1,4.1c-1,0.5-1.5,2-1,3.1
		l1.5,3.1l24.9,45.8c0.5,1,2,1.5,3.1,1l43.3-23.4l6.6-3.6l12.7-7.1C1364,996.7,1364.5,995.2,1363.5,994.1
		C1364,994.1,1364,994.1,1363.5,994.1z"/>
	<path class="st5" d="M1465.8,978.9c-1-2-4.1-3.1-6.1-1.5l-92.1,50.4c-1.5,1-2.5,2.5-2,4.6c0,0.5,0,1,0.5,1.5c0,0.5,0.5,1,1,1l0,0
		c1.5,1,3.6,1.5,5.1,0.5l92.1-50.4C1466.3,983.5,1466.8,980.9,1465.8,978.9L1465.8,978.9z"/>
	<path class="st5" d="M1488.7,982.9c-1-2-4.1-3.1-6.1-1.5l0,0l-107.9,59c-1.5,1-2.5,2.5-2,4.6l0,0c0,0.5,0,1,0.5,1.5
		c0,0.5,0.5,1,1,1c1.5,1.5,3.6,1.5,5.1,0.5l108.4-59C1489.2,988,1490.2,985.5,1488.7,982.9z"/>
	<circle class="st5" cx="1336.5" cy="1057.8" r="18.8"/>
	<path class="st0" d="M1479,767.2l-12.7,6.6L1309,859.3l-12.7,7.1c-12.7,7.1-17.8,23.4-10.7,36.1l117,214.2
		c7.1,12.7,23.4,17.8,36.1,10.7l0,0l182.2-99.7l0,0c12.7-7.1,17.8-23.4,10.7-36.1l-117-214.2C1508,764.6,1491.7,760,1479,767.2z"/>
	<path class="st6" d="M1482.6,773.8l-15.3,8.1l-152.2,83l-15.3,8.1c-9.2,5.1-12.7,16.3-7.6,25.4l117,214.2
		c5.1,9.2,16.3,12.7,25.4,7.6l0,0l182.2-99.7l0,0c9.2-5.1,12.7-16.3,7.6-25.4l-117-214.2C1503.4,772.3,1491.7,768.7,1482.6,773.8z"
		/>
	<path class="st0" d="M1487.1,834.3c-1-2-4.1-3.1-6.1-1.5l-31.6,17.3l-8.7,4.6l-28,15.3c-2,1-3.1,4.1-1.5,6.1c1,2,4.1,3.1,6.1,1.5
		l33.1-17.8l7.1-3.6l28-15.3C1487.1,838.9,1488.2,836.4,1487.1,834.3z"/>
	<path class="st0" d="M1510,838.4c-1-2-3.6-3.1-6.1-1.5l0,0l-43.8,23.9l-6.6,3.6l-33.6,18.3c-2,1-3.1,4.1-1.5,6.1
		c1,2,4.1,3.1,6.1,1.5l0,0l33.6-18.3l6.6-3.6l43.8-23.9C1510.5,843.5,1511.1,841,1510,838.4L1510,838.4z"/>
	<path class="st2" d="M1418.9,911.7l-21.4-39.2l-3.6-6.6l-1.5-3.1c-0.5-1-2-1.5-3.1-1l-43.3,23.4l-19.3,10.7c-1,0.5-1.5,2-1,3.1
		l1.5,3.1l2,3.6l1.5,3.1l0,0l21.4,39.2c0.5,1,2,1.5,3.1,1l62.6-34.1C1418.9,914.2,1419.5,912.7,1418.9,911.7L1418.9,911.7z"/>
	<path class="st0" d="M1520.7,896.4c-1-2-4.1-3.1-6.1-1.5l-27.5,15.3l-6.6,3.6l-26.5,14.8l-31.6,17.3c-2,1-3.1,4.1-1.5,6.1
		c1,2,4.1,3.1,6.1,1.5l58-31.6l6.6-3.6l27.5-15.3C1521.2,901,1521.7,898.5,1520.7,896.4L1520.7,896.4z"/>
	<path class="st0" d="M1543.6,900.5c-1-2-4.1-3.1-6.1-1.5l0,0l-43.8,23.9l-6.6,3.6l-58,31.6c-2,1-3.1,4.1-2,6.1c1,2,4.1,3.1,6.1,2
		l0,0l58-31.6l6.6-3.6l43.8-23.9C1544.1,905.6,1545.2,903.1,1543.6,900.5z"/>
	<circle class="st0" cx="1391.5" cy="975.3" r="18.8"/>
	<path class="st1" d="M1404.2,1080.7c3.1,0.5,6.1,1,9.2,1.5l213.2-188.8l-13.7-67.7l99.7-34.1l36.1,117.6
		c6.1,19.3-1.5,40.7-18.8,51.9l-270.7,177.6c1,33.1-24.9,61.1-58.5,62.1c-33.1,1-61.1-24.9-62.1-58.5c-1-33.1,24.9-61.1,58.5-62.1
		C1399.1,1080.7,1401.6,1080.7,1404.2,1080.7L1404.2,1080.7z"/>
	<path class="st2" d="M1773.1,808.4l-60.6-115c-12.7-36.6-52.4-56-89.1-44.3c-0.5,0-1.5,0.5-2,0.5c-37.7,13.2-57,53.9-44.3,91.6
		l24.4,127.2c1.5,7.1,6.1,13.7,12.2,17.3c3.6,2,7.6,3.1,11.7,3.6c3.6,0,6.6-0.5,9.7-1.5l12.7-4.6l83-29l27-9.7
		c13.2-4.6,20.4-19.3,15.8-33.1C1774.2,810.9,1773.7,809.4,1773.1,808.4L1773.1,808.4z"/>
	<path class="st7" d="M2000.6,1253.2H6.7c-1.5,0-3.1-1.5-3.1-3.1s1.5-3.1,3.1-3.1h1993.9c1.5,0,3.1,1.5,3.1,3.1
		C2003.7,1251.7,2002.7,1253.2,2000.6,1253.2z"/>
	<path class="st7" d="M350.2,1196.7v1.5c0,21.4,12.7,40.2,32.1,48.9c6.6,3.1,14.2,4.6,21.4,4.6h493.1v-55H350.2z"/>
	<path class="st7" d="M1241.3,834.3c-7.6-16.3-19.8-30-35.1-39.7c-6.6-4.6-14.2-8.1-21.9-10.7c-10.7-3.6-21.4-5.6-32.6-5.6H678.5
		c-55,0-99.2,44.3-99.2,99.2v274.8c0,4.1,0,7.6,0.5,11.7c0.5,5.6,2,11.2,3.6,16.8c1.5,5.6,3.6,10.7,6.1,15.8
		c16.8,33.6,51.4,55,89.1,55h473.3c55,0,99.2-44.3,99.2-99.2l0,0V877.6C1251,862.3,1248,847.6,1241.3,834.3z"/>
</g>
</svg>
