<svg id="_x31__px" height="512" viewBox="0 0 24 24" width="512" xmlns="http://www.w3.org/2000/svg"><path d="m17.5 24c-.105 0-.21-.033-.299-.099-.254-.189-6.201-4.67-6.201-8.271 0-2.002 1.629-3.63 3.631-3.63 1.141 0 2.193.531 2.869 1.404.677-.873 1.729-1.404 2.869-1.404 2.002 0 3.631 1.628 3.631 3.63 0 3.601-5.947 8.082-6.201 8.271-.089.066-.194.099-.299.099zm-2.869-11c-1.45 0-2.631 1.18-2.631 2.63 0 2.427 3.724 5.848 5.5 7.24 1.776-1.392 5.5-4.813 5.5-7.24 0-1.45-1.181-2.63-2.631-2.63-1.048 0-1.994.619-2.41 1.578-.08.183-.26.301-.459.301-.199 0-.38-.118-.459-.301-.415-.959-1.361-1.578-2.41-1.578z"/><path d="m8.5 18h-7c-.827 0-1.5-.673-1.5-1.5 0-.086.009-.162.021-.246l3.008-15.052c.138-.696.756-1.202 1.471-1.202h11c.715 0 1.333.506 1.471 1.203l1.739 8.699c.054.271-.121.534-.393.588-.259.055-.533-.121-.588-.392l-1.739-8.7c-.046-.231-.252-.398-.49-.398h-11c-.238 0-.444.167-.49.396l-3 15.001c-.004.033-.01.066-.01.103 0 .276.225.5.5.5h7c.276 0 .5.224.5.5s-.224.5-.5.5z"/><path d="m22.219 10.5c-.233 0-.441-.164-.489-.402l-1.739-8.7c-.047-.231-.253-.398-.491-.398h-4c-.276 0-.5-.224-.5-.5s.224-.5.5-.5h4c.715 0 1.333.506 1.471 1.203l1.739 8.699c.054.271-.121.534-.393.588-.032.007-.065.01-.098.01z"/><path d="m10 9c-2.206 0-4-1.794-4-4v-2.5c0-.276.224-.5.5-.5s.5.224.5.5v2.5c0 1.654 1.346 3 3 3s3-1.346 3-3v-2.5c0-.276.224-.5.5-.5s.5.224.5.5v2.5c0 2.206-1.794 4-4 4z"/></svg>